<svg id="visual" viewBox="0 0 960 540" width="960" height="540" xmlns="http://www.w3.org/2000/svg" xmlns:xlink="http://www.w3.org/1999/xlink" version="1.1"><g stroke-width="1" stroke-linejoin="bevel"><path d="M471 249L392 226L469 355Z" fill="#205c6c" stroke="#205c6c"></path><path d="M392 226L335 348L469 355Z" fill="#44948e" stroke="#44948e"></path><path d="M335 348L368 407L469 355Z" fill="#338185" stroke="#338185"></path><path d="M392 226L260 310L335 348Z" fill="#050517" stroke="#050517"></path><path d="M335 348L246 453L368 407Z" fill="#73ba9b" stroke="#73ba9b"></path><path d="M368 407L440 469L469 355Z" fill="#1a394c" stroke="#1a394c"></path><path d="M501 84L374 112L392 226Z" fill="#205c6c" stroke="#205c6c"></path><path d="M392 226L214 239L260 310Z" fill="#16283a" stroke="#16283a"></path><path d="M260 120L214 239L392 226Z" fill="#205c6c" stroke="#205c6c"></path><path d="M612 426L632 354L469 355Z" fill="#205c6c" stroke="#205c6c"></path><path d="M469 355L632 354L471 249Z" fill="#1a394c" stroke="#1a394c"></path><path d="M471 249L501 84L392 226Z" fill="#1c4a5c" stroke="#1c4a5c"></path><path d="M145 407L246 453L260 310Z" fill="#276f7a" stroke="#276f7a"></path><path d="M260 310L246 453L335 348Z" fill="#16283a" stroke="#16283a"></path><path d="M368 407L320 540L440 469Z" fill="#338185" stroke="#338185"></path><path d="M632 354L627 219L471 249Z" fill="#111928" stroke="#111928"></path><path d="M627 219L501 84L471 249Z" fill="#5aa795" stroke="#5aa795"></path><path d="M440 469L612 426L469 355Z" fill="#16283a" stroke="#16283a"></path><path d="M328 0L260 120L374 112Z" fill="#1c4a5c" stroke="#1c4a5c"></path><path d="M374 112L260 120L392 226Z" fill="#050517" stroke="#050517"></path><path d="M320 540L450 540L440 469Z" fill="#73ba9b" stroke="#73ba9b"></path><path d="M440 469L450 540L612 426Z" fill="#1a394c" stroke="#1a394c"></path><path d="M246 453L320 540L368 407Z" fill="#1c4a5c" stroke="#1c4a5c"></path><path d="M214 239L129 340L260 310Z" fill="#16283a" stroke="#16283a"></path><path d="M246 453L245 540L320 540Z" fill="#050517" stroke="#050517"></path><path d="M127 244L129 340L214 239Z" fill="#338185" stroke="#338185"></path><path d="M129 340L145 407L260 310Z" fill="#276f7a" stroke="#276f7a"></path><path d="M136 68L127 244L214 239Z" fill="#1a394c" stroke="#1a394c"></path><path d="M109 540L245 540L246 453Z" fill="#44948e" stroke="#44948e"></path><path d="M627 219L612 73L501 84Z" fill="#44948e" stroke="#44948e"></path><path d="M576 0L464 0L501 84Z" fill="#050517" stroke="#050517"></path><path d="M501 84L464 0L374 112Z" fill="#338185" stroke="#338185"></path><path d="M464 0L328 0L374 112Z" fill="#5aa795" stroke="#5aa795"></path><path d="M260 120L136 68L214 239Z" fill="#205c6c" stroke="#205c6c"></path><path d="M450 540L628 540L612 426Z" fill="#16283a" stroke="#16283a"></path><path d="M612 426L728 403L632 354Z" fill="#1c4a5c" stroke="#1c4a5c"></path><path d="M704 540L728 403L612 426Z" fill="#050517" stroke="#050517"></path><path d="M632 354L750 294L627 219Z" fill="#111928" stroke="#111928"></path><path d="M627 219L702 138L612 73Z" fill="#205c6c" stroke="#205c6c"></path><path d="M758 251L702 138L627 219Z" fill="#050517" stroke="#050517"></path><path d="M728 403L750 294L632 354Z" fill="#050517" stroke="#050517"></path><path d="M612 73L576 0L501 84Z" fill="#205c6c" stroke="#205c6c"></path><path d="M732 0L576 0L612 73Z" fill="#73ba9b" stroke="#73ba9b"></path><path d="M328 0L243 0L260 120Z" fill="#205c6c" stroke="#205c6c"></path><path d="M750 294L758 251L627 219Z" fill="#73ba9b" stroke="#73ba9b"></path><path d="M243 0L136 68L260 120Z" fill="#050517" stroke="#050517"></path><path d="M628 540L704 540L612 426Z" fill="#050517" stroke="#050517"></path><path d="M728 403L842 301L750 294Z" fill="#44948e" stroke="#44948e"></path><path d="M0 434L109 540L145 407Z" fill="#050517" stroke="#050517"></path><path d="M145 407L109 540L246 453Z" fill="#44948e" stroke="#44948e"></path><path d="M0 434L145 407L129 340Z" fill="#5aa795" stroke="#5aa795"></path><path d="M0 332L129 340L127 244Z" fill="#1a394c" stroke="#1a394c"></path><path d="M0 227L0 332L127 244Z" fill="#111928" stroke="#111928"></path><path d="M0 96L0 227L127 244Z" fill="#111928" stroke="#111928"></path><path d="M243 0L120 0L136 68Z" fill="#1c4a5c" stroke="#1c4a5c"></path><path d="M136 68L0 96L127 244Z" fill="#276f7a" stroke="#276f7a"></path><path d="M842 442L842 301L728 403Z" fill="#111928" stroke="#111928"></path><path d="M750 294L842 301L758 251Z" fill="#338185" stroke="#338185"></path><path d="M758 251L826 116L702 138Z" fill="#276f7a" stroke="#276f7a"></path><path d="M0 332L0 434L129 340Z" fill="#276f7a" stroke="#276f7a"></path><path d="M826 116L732 0L702 138Z" fill="#338185" stroke="#338185"></path><path d="M702 138L732 0L612 73Z" fill="#276f7a" stroke="#276f7a"></path><path d="M801 540L842 442L728 403Z" fill="#050517" stroke="#050517"></path><path d="M859 198L826 116L758 251Z" fill="#73ba9b" stroke="#73ba9b"></path><path d="M704 540L801 540L728 403Z" fill="#44948e" stroke="#44948e"></path><path d="M842 301L859 198L758 251Z" fill="#1a394c" stroke="#1a394c"></path><path d="M960 308L859 198L842 301Z" fill="#205c6c" stroke="#205c6c"></path><path d="M120 0L0 96L136 68Z" fill="#5aa795" stroke="#5aa795"></path><path d="M0 434L0 540L109 540Z" fill="#111928" stroke="#111928"></path><path d="M120 0L0 0L0 96Z" fill="#050517" stroke="#050517"></path><path d="M960 125L851 0L826 116Z" fill="#276f7a" stroke="#276f7a"></path><path d="M826 116L851 0L732 0Z" fill="#205c6c" stroke="#205c6c"></path><path d="M960 408L842 301L842 442Z" fill="#050517" stroke="#050517"></path><path d="M960 408L960 308L842 301Z" fill="#276f7a" stroke="#276f7a"></path><path d="M859 198L960 125L826 116Z" fill="#44948e" stroke="#44948e"></path><path d="M960 308L960 204L859 198Z" fill="#44948e" stroke="#44948e"></path><path d="M960 540L960 408L842 442Z" fill="#205c6c" stroke="#205c6c"></path><path d="M960 204L960 125L859 198Z" fill="#338185" stroke="#338185"></path><path d="M801 540L960 540L842 442Z" fill="#050517" stroke="#050517"></path><path d="M960 125L960 0L851 0Z" fill="#276f7a" stroke="#276f7a"></path></g></svg>