<svg id="visual" viewBox="0 0 960 540" width="960" height="540" xmlns="http://www.w3.org/2000/svg" xmlns:xlink="http://www.w3.org/1999/xlink" version="1.1"><g stroke-width="1" stroke-linejoin="bevel"><path d="M470 328L464 416L593 359Z" fill="#99d8ff" stroke="#99d8ff"></path><path d="M464 416L610 413L593 359Z" fill="#adcafd" stroke="#adcafd"></path><path d="M683 322L633 254L593 359Z" fill="#a6cfff" stroke="#a6cfff"></path><path d="M593 359L633 254L470 328Z" fill="#94dcff" stroke="#94dcff"></path><path d="M610 413L688 402L593 359Z" fill="#b4c6f9" stroke="#b4c6f9"></path><path d="M688 402L683 322L593 359Z" fill="#9fd3ff" stroke="#9fd3ff"></path><path d="M464 416L596 540L610 413Z" fill="#a6cfff" stroke="#a6cfff"></path><path d="M610 413L596 540L688 402Z" fill="#c1bdf0" stroke="#c1bdf0"></path><path d="M385 540L448 540L464 416Z" fill="#94dcff" stroke="#94dcff"></path><path d="M464 416L448 540L596 540Z" fill="#94dcff" stroke="#94dcff"></path><path d="M334 326L349 438L464 416Z" fill="#99d8ff" stroke="#99d8ff"></path><path d="M633 254L468 189L470 328Z" fill="#c1bdf0" stroke="#c1bdf0"></path><path d="M470 328L334 326L464 416Z" fill="#c1bdf0" stroke="#c1bdf0"></path><path d="M342 248L334 326L470 328Z" fill="#a6cfff" stroke="#a6cfff"></path><path d="M349 438L385 540L464 416Z" fill="#b4c6f9" stroke="#b4c6f9"></path><path d="M468 189L342 248L470 328Z" fill="#94dcff" stroke="#94dcff"></path><path d="M849 352L694 213L683 322Z" fill="#99d8ff" stroke="#99d8ff"></path><path d="M683 322L694 213L633 254Z" fill="#b4c6f9" stroke="#b4c6f9"></path><path d="M633 254L596 147L468 189Z" fill="#8de4ff" stroke="#8de4ff"></path><path d="M694 213L596 147L633 254Z" fill="#adcafd" stroke="#adcafd"></path><path d="M596 147L461 132L468 189Z" fill="#9fd3ff" stroke="#9fd3ff"></path><path d="M468 189L461 132L342 248Z" fill="#9fd3ff" stroke="#9fd3ff"></path><path d="M334 326L253 400L349 438Z" fill="#a6cfff" stroke="#a6cfff"></path><path d="M349 438L258 540L385 540Z" fill="#b4c6f9" stroke="#b4c6f9"></path><path d="M206 334L253 400L334 326Z" fill="#a6cfff" stroke="#a6cfff"></path><path d="M596 540L753 540L688 402Z" fill="#c1bdf0" stroke="#c1bdf0"></path><path d="M688 402L849 352L683 322Z" fill="#94dcff" stroke="#94dcff"></path><path d="M753 540L803 468L688 402Z" fill="#c1bdf0" stroke="#c1bdf0"></path><path d="M253 400L258 540L349 438Z" fill="#c7b8ea" stroke="#c7b8ea"></path><path d="M694 213L700 112L596 147Z" fill="#c7b8ea" stroke="#c7b8ea"></path><path d="M482 0L381 78L461 132Z" fill="#90e0ff" stroke="#90e0ff"></path><path d="M857 96L700 112L694 213Z" fill="#bac1f5" stroke="#bac1f5"></path><path d="M201 211L206 334L342 248Z" fill="#adcafd" stroke="#adcafd"></path><path d="M342 248L206 334L334 326Z" fill="#c1bdf0" stroke="#c1bdf0"></path><path d="M253 400L154 540L258 540Z" fill="#c1bdf0" stroke="#c1bdf0"></path><path d="M803 468L849 352L688 402Z" fill="#99d8ff" stroke="#99d8ff"></path><path d="M482 0L461 132L596 147Z" fill="#c1bdf0" stroke="#c1bdf0"></path><path d="M461 132L381 78L342 248Z" fill="#c7b8ea" stroke="#c7b8ea"></path><path d="M753 540L813 540L803 468Z" fill="#c7b8ea" stroke="#c7b8ea"></path><path d="M960 419L960 361L849 352Z" fill="#c1bdf0" stroke="#c1bdf0"></path><path d="M246 132L201 211L342 248Z" fill="#b4c6f9" stroke="#b4c6f9"></path><path d="M381 78L246 132L342 248Z" fill="#bac1f5" stroke="#bac1f5"></path><path d="M620 0L482 0L596 147Z" fill="#c7b8ea" stroke="#c7b8ea"></path><path d="M381 78L356 0L246 132Z" fill="#adcafd" stroke="#adcafd"></path><path d="M960 361L874 222L849 352Z" fill="#b4c6f9" stroke="#b4c6f9"></path><path d="M849 352L874 222L694 213Z" fill="#94dcff" stroke="#94dcff"></path><path d="M716 0L620 0L700 112Z" fill="#bac1f5" stroke="#bac1f5"></path><path d="M700 112L620 0L596 147Z" fill="#99d8ff" stroke="#99d8ff"></path><path d="M104 69L146 238L201 211Z" fill="#94dcff" stroke="#94dcff"></path><path d="M201 211L146 238L206 334Z" fill="#a6cfff" stroke="#a6cfff"></path><path d="M83 457L154 540L253 400Z" fill="#c7b8ea" stroke="#c7b8ea"></path><path d="M93 360L253 400L206 334Z" fill="#b4c6f9" stroke="#b4c6f9"></path><path d="M482 0L356 0L381 78Z" fill="#c1bdf0" stroke="#c1bdf0"></path><path d="M246 132L104 69L201 211Z" fill="#99d8ff" stroke="#99d8ff"></path><path d="M857 96L716 0L700 112Z" fill="#a6cfff" stroke="#a6cfff"></path><path d="M146 238L93 360L206 334Z" fill="#b4c6f9" stroke="#b4c6f9"></path><path d="M874 222L857 96L694 213Z" fill="#94dcff" stroke="#94dcff"></path><path d="M960 419L849 352L803 468Z" fill="#a6cfff" stroke="#a6cfff"></path><path d="M874 222L960 200L857 96Z" fill="#c1bdf0" stroke="#c1bdf0"></path><path d="M960 540L960 419L803 468Z" fill="#9fd3ff" stroke="#9fd3ff"></path><path d="M93 360L83 457L253 400Z" fill="#bac1f5" stroke="#bac1f5"></path><path d="M813 540L960 540L803 468Z" fill="#bac1f5" stroke="#bac1f5"></path><path d="M960 361L960 200L874 222Z" fill="#8de4ff" stroke="#8de4ff"></path><path d="M356 0L226 0L246 132Z" fill="#94dcff" stroke="#94dcff"></path><path d="M0 291L0 413L93 360Z" fill="#94dcff" stroke="#94dcff"></path><path d="M857 96L863 0L716 0Z" fill="#b4c6f9" stroke="#b4c6f9"></path><path d="M960 90L863 0L857 96Z" fill="#b4c6f9" stroke="#b4c6f9"></path><path d="M226 0L104 69L246 132Z" fill="#90e0ff" stroke="#90e0ff"></path><path d="M93 360L0 413L83 457Z" fill="#99d8ff" stroke="#99d8ff"></path><path d="M960 200L960 90L857 96Z" fill="#bac1f5" stroke="#bac1f5"></path><path d="M0 291L93 360L146 238Z" fill="#a6cfff" stroke="#a6cfff"></path><path d="M83 457L0 540L154 540Z" fill="#bac1f5" stroke="#bac1f5"></path><path d="M0 218L0 291L146 238Z" fill="#8de4ff" stroke="#8de4ff"></path><path d="M104 69L0 218L146 238Z" fill="#c1bdf0" stroke="#c1bdf0"></path><path d="M0 413L0 540L83 457Z" fill="#94dcff" stroke="#94dcff"></path><path d="M960 90L960 0L863 0Z" fill="#8de4ff" stroke="#8de4ff"></path><path d="M226 0L85 0L104 69Z" fill="#a6cfff" stroke="#a6cfff"></path><path d="M104 69L0 76L0 218Z" fill="#c7b8ea" stroke="#c7b8ea"></path><path d="M85 0L0 76L104 69Z" fill="#a6cfff" stroke="#a6cfff"></path><path d="M85 0L0 0L0 76Z" fill="#adcafd" stroke="#adcafd"></path></g></svg>